/* XPM */
static char * C:\Users\chtzm\OneDrive\Desktop\exit_xpm[] = {
"70 70 42 1",
" 	c None",
".	c #F7B239",
"+	c #666666",
"@	c #ECAC3C",
"#	c #EDAD3C",
"$	c #9AD14B",
"%	c #C3E19A",
"&	c #A2D45A",
"*	c #B3DA7A",
"=	c #B9DD85",
"-	c #F2F2F2",
";	c #9DD250",
">	c #E3ECD6",
",	c #EBEFE4",
"'	c #DFEBCF",
")	c #CAE3A7",
"!	c #D2E6B4",
"~	c #A0D355",
"{	c #B5DB7D",
"]	c #A4D55E",
"^	c #F2F2F1",
"/	c #9BD14D",
"(	c #F1F2F1",
"_	c #E3ECD5",
":	c #E2ECD3",
"<	c #EAEFE2",
"[	c #AFD972",
"}	c #EEF0EA",
"|	c #D9E9C2",
"1	c #C8E2A1",
"2	c #E8EEDF",
"3	c #9DD251",
"4	c #A3D45D",
"5	c #EAEFE3",
"6	c #F0F1EF",
"7	c #C5E19C",
"8	c #D9E9C4",
"9	c #B8DC84",
"0	c #CFE5B0",
"a	c #CFE5B1",
"b	c #CFE5AF",
"c	c #D4E7B9",
"                                 ....                                 ",
"                                 ....                                 ",
"                                ......                                ",
"                                ......                                ",
"                                ......                                ",
"                                ......                                ",
"                               +......+                               ",
"                               +@....#+                               ",
"                              +++....+++                              ",
"                              +++ .. ++++                             ",
"                             +++      +++                             ",
"                            ++++      ++++                            ",
"                           ++++        ++++                           ",
"                           +++          +++                           ",
"                          ++++          ++++                          ",
"                          +++            ++++                         ",
"                         +++              +++                         ",
"                        ++++              ++++                        ",
"                        +++                ++++                       ",
"                       +++                  +++                       ",
"                      ++++                  ++++                      ",
"                      +++                    ++++                     ",
"                     +++                      +++                     ",
"  $$$$$$$$$$$$$$$$$$$$$$$$$$$$$$$$$$$$$$$$$$$$$$$$$$$$$$$$$$$$$$$$$$  ",
" $$$$$$$$$$$$$$$$$$$$$$$$$$$$$$$$$$$$$$$$$$$$$$$$$$$$$$$$$$$$$$$$$$$$ ",
" $$$$$$$$$$$$$$$$$$$$$$$$$$$$$$$$$$$$$$$$$$$$$$$$$$$$$$$$$$$$$$$$$$$$ ",
"$$$$$$$$$$$$$$$$$$$$$$$$$$$$$$$$$$$$$$$$$$$$$$$$$$$$$$$$$$$$$$$$$$$$$$",
"$$$$$$$$$$$$$$$$$$$$$$$$$$$$$$$$$$$$$$$$$$$$$$$$$$$$$$$$$$$$$$$$$$$$$$",
"$$$$$$$$$$$$$$$$$$$$$$$$$$$$$$$$$$$$$$$$$$$$$$$$$$$$$$$$$$$$$$$$$$$$$$",
"$$$$$$$$$$$$$$$$$$$$$$$$$$$$$$$$$$$$$$$$$$$$$$$$$$$$$$$$$$$$$$$$$$$$$$",
"$$$$$$$$$$$$$$$$$$$$$$$$$$$$$$$$$$$$$$$$$$$$$$$$$$$$$$$$$$$$$$$$$$$$$$",
"$$$$$$$$$$$$$$$$$$$$$$$$$$$$$$$$$$$$$$$$$$$$$$$$$$$$$$$$$$$$$$$$$$$$$$",
"$$$$$$$$$$$$$$$$$$$$$$$$$$$$$$$$$$$$$$$$$$$$$$$$$$$$$$$$$$$$$$$$$$$$$$",
"$$$$$$$$$$$$$$$$$$$$$$$$$$$$$$$$$$$$$$$$$$$$$$$$$$$$$$$$$$$$$$$$$$$$$$",
"$$$$$$$$$$$$$$$$$$$$$$$$$$$$$$$$$$$$$$$$$$$$$$$$$$$$$$$$$$$$$$$$$$$$$$",
"$$$$$$$$$$$$$$%%%%%%%&$$$$*$$$$$$$*$$$$$$=$$$$$%%%%%%%%%$$$$$$$$$$$$$$",
"$$$$$$$$$$$$$---------$$$--;$$$$$-->$$$$--,$$$-----------$$$$$$$$$$$$$",
"$$$$$$$$$$$$$---------'$$---$$$$$---$$$$---$$$-----------$$$$$$$$$$$$$",
"$$$$$$$$$$$$$---------$$$---$$$$)--!$$$$---$$$-----------$$$$$$$$$$$$$",
"$$$$$$$$$$$$$--&;;;;;$$$$$---$$$---$$$$$---$$$$;;;---;;;$$$$$$$$$$$$$$",
"$$$$$$$$$$$$$--~$$$$$$$$$$---$${--,$$$$$---$$$$$$$---$$$$$$$$$$$$$$$$$",
"$$$$$$$$$$$$$--~$$$$$$$$$$$---$---$$$$$$---$$$$$$$---$$$$$$$$$$$$$$$$$",
"$$$$$$$$$$$$$--~$$$$$$$$$$$---]--^$$$$$$---$$$$$$$---$$$$$$$$$$$$$$$$$",
"$$$$$$$$$$$$$--~$$$$$$$$$$$%-----$$$$$$$---$$$$$$$---$$$$$$$$$$$$$$$$$",
"$$$$$$$$$$$$$--~$$$$$$$$$$$$-----$$$$$$$---$$$$$$$---$$$$$$$$$$$$$$$$$",
"$$$$$$$$$$$$$------$$$$$$$$$----/$$$$$$$---$$$$$$$---$$$$$$$$$$$$$$$$$",
"$$$$$$$$$$$$$------$$$$$$$$$$---$$$$$$$$---$$$$$$$---$$$$$$$$$$$$$$$$$",
"$$$$$$$$$$$$$------$$$$$$$$$(---$$$$$$$$---$$$$$$$---$$$$$$$$$$$$$$$$$",
"$$$$$$$$$$$$$--_::$$$$$$$$$$-----$$$$$$$---$$$$$$$---$$$$$$$$$$$$$$$$$",
"$$$$$$$$$$$$$--~$$$$$$$$$$$<-----$$$$$$$---$$$$$$$---$$$$$$$$$$$$$$$$$",
"$$$$$$$$$$$$$--~$$$$$$$$$$$---[--}$$$$$$---$$$$$$$---$$$$$$$$$$$$$$$$$",
"$$$$$$$$$$$$$--~$$$$$$$$$$$---$---$$$$$$---$$$$$$$---$$$$$$$$$$$$$$$$$",
"$$$$$$$$$$$$$--~$$$$$$$$$$---$$%--:$$$$$---$$$$$$$---$$$$$$$$$$$$$$$$$",
"$$$$$$$$$$$$$--~$$$$$$$$$$---$$$---$$$$$---$$$$$$$---$$$$$$$$$$$$$$$$$",
"$$$$$$$$$$$$$---------$$$---$$$$|--1$$$$---$$$$$$$---$$$$$$$$$$$$$$$$$",
"$$$$$$$$$$$$$---------2$$---$$$$$---$$$$---$$$$$$$---$$$$$$$$$$$$$$$$$",
"$$$$$$$$$$$$$---------3$$--4$$$$$--5$$$$--6$$$$$$$--7$$$$$$$$$$$$$$$$$",
"$$$$$$$$$$$$$$88888889$$$$0$$$$$$$a$$$$$$b$$$$$$$$$c$$$$$$$$$$$$$$$$$$",
"$$$$$$$$$$$$$$$$$$$$$$$$$$$$$$$$$$$$$$$$$$$$$$$$$$$$$$$$$$$$$$$$$$$$$$",
"$$$$$$$$$$$$$$$$$$$$$$$$$$$$$$$$$$$$$$$$$$$$$$$$$$$$$$$$$$$$$$$$$$$$$$",
"$$$$$$$$$$$$$$$$$$$$$$$$$$$$$$$$$$$$$$$$$$$$$$$$$$$$$$$$$$$$$$$$$$$$$$",
"$$$$$$$$$$$$$$$$$$$$$$$$$$$$$$$$$$$$$$$$$$$$$$$$$$$$$$$$$$$$$$$$$$$$$$",
"$$$$$$$$$$$$$$$$$$$$$$$$$$$$$$$$$$$$$$$$$$$$$$$$$$$$$$$$$$$$$$$$$$$$$$",
"$$$$$$$$$$$$$$$$$$$$$$$$$$$$$$$$$$$$$$$$$$$$$$$$$$$$$$$$$$$$$$$$$$$$$$",
"$$$$$$$$$$$$$$$$$$$$$$$$$$$$$$$$$$$$$$$$$$$$$$$$$$$$$$$$$$$$$$$$$$$$$$",
"$$$$$$$$$$$$$$$$$$$$$$$$$$$$$$$$$$$$$$$$$$$$$$$$$$$$$$$$$$$$$$$$$$$$$$",
"$$$$$$$$$$$$$$$$$$$$$$$$$$$$$$$$$$$$$$$$$$$$$$$$$$$$$$$$$$$$$$$$$$$$$$",
" $$$$$$$$$$$$$$$$$$$$$$$$$$$$$$$$$$$$$$$$$$$$$$$$$$$$$$$$$$$$$$$$$$$$ ",
" $$$$$$$$$$$$$$$$$$$$$$$$$$$$$$$$$$$$$$$$$$$$$$$$$$$$$$$$$$$$$$$$$$$$ ",
"  $$$$$$$$$$$$$$$$$$$$$$$$$$$$$$$$$$$$$$$$$$$$$$$$$$$$$$$$$$$$$$$$$$  "};
