/* XPM */
static char * C:\Users\chtzm\AppData\Local\Packages\CanonicalGroupLimited_Ubuntu20_04onWindows_79rhkp1fndgsc\LocalState\rootfs\home\mchatzip\projects\so_long\intra_uuid_ad5f92d0_4347_41c5_9ead_6364acd887f2_3693790\img\walk2_xpm[] = {
"70 70 4 1",
" 	c None",
".	c #2F2F2E",
"+	c #B5B5B5",
"@	c #E0E0E0",
"                                             ..........     ..........",
"                                             ..........     ..........",
"                                             ..........     ..........",
"                                             ..........     ..........",
"                                             ..........     ..........",
"                                             ..........     ..........",
"                                        .....+++++..........+++++.....",
"                                        .....+++++..........+++++.....",
"                                        .....+++++..........+++++.....",
"                                        .....+++++..........+++++.....",
"                                        .....+++++..........+++++.....",
"                                        .....+++++..........+++++.....",
"                                        .....+++++..........+++++.....",
"          ..........               .....+++++@@@@@@@@@@@@@@@.....     ",
"          ..........               .....+++++@@@@@@@@@@@@@@@.....     ",
"          ..........               .....+++++@@@@@@@@@@@@@@@.....     ",
"          ..........               .....+++++@@@@@@@@@@@@@@@.....     ",
"          ..........               .....+++++@@@@@@@@@@@@@@@.....     ",
"          ..........               .....+++++@@@@@@@@@@@@@@@.....     ",
"     .....@@@@@.....               .....+++++@@@@@.....++++++++++.....",
"     .....@@@@@.....               .....+++++@@@@@.....++++++++++.....",
"     .....@@@@@.....               .....+++++@@@@@.....++++++++++.....",
"     .....@@@@@.....               .....+++++@@@@@.....++++++++++.....",
"     .....@@@@@.....               .....+++++@@@@@.....++++++++++.....",
"     .....@@@@@.....               .....+++++@@@@@.....++++++++++.....",
".....@@@@@.....                    .....+++++@@@@@@@@@@@@@@@@@@@@.....",
".....@@@@@.....                    .....+++++@@@@@@@@@@@@@@@@@@@@.....",
".....@@@@@.....                    .....+++++@@@@@@@@@@@@@@@@@@@@.....",
".....@@@@@.....                    .....+++++@@@@@@@@@@@@@@@@@@@@.....",
".....@@@@@.....                    .....+++++@@@@@@@@@@@@@@@@@@@@.....",
".....@@@@@.....                    .....+++++@@@@@@@@@@@@@@@@@@@@.....",
".....@@@@@.....                    .....+++++@@@@@@@@@@@@@@@@@@@@.....",
".....@@@@@@@@@@.........................+++++++++++++++++++++++++.....",
".....@@@@@@@@@@.........................+++++++++++++++++++++++++.....",
".....@@@@@@@@@@.........................+++++++++++++++++++++++++.....",
".....@@@@@@@@@@.........................+++++++++++++++++++++++++.....",
".....@@@@@@@@@@.........................+++++++++++++++++++++++++.....",
".....@@@@@@@@@@.........................+++++++++++++++++++++++++.....",
"     ..........@@@@@@@@@@@@@@@@@@@@@@@@@@@@@@@@@@@@@@@@@@@@@.....     ",
"     ..........@@@@@@@@@@@@@@@@@@@@@@@@@@@@@@@@@@@@@@@@@@@@@.....     ",
"     ..........@@@@@@@@@@@@@@@@@@@@@@@@@@@@@@@@@@@@@@@@@@@@@.....     ",
"     ..........@@@@@@@@@@@@@@@@@@@@@@@@@@@@@@@@@@@@@@@@@@@@@.....     ",
"     ..........@@@@@@@@@@@@@@@@@@@@@@@@@@@@@@@@@@@@@@@@@@@@@.....     ",
"     ..........@@@@@@@@@@@@@@@@@@@@@@@@@@@@@@@@@@@@@@@@@@@@@.....     ",
"     ..........@@@@@@@@@@@@@@@@@@@@@@@@@@@@@@@@@@@@@@@@@@@@@.....     ",
"          .....@@@@@@@@@@@@@@@@@@@@@@@@@@@@@@@@@@@@@@@@@@@@@.....     ",
"          .....@@@@@@@@@@@@@@@@@@@@@@@@@@@@@@@@@@@@@@@@@@@@@.....     ",
"          .....@@@@@@@@@@@@@@@@@@@@@@@@@@@@@@@@@@@@@@@@@@@@@.....     ",
"          .....@@@@@@@@@@@@@@@@@@@@@@@@@@@@@@@@@@@@@@@@@@@@@.....     ",
"          .....@@@@@@@@@@@@@@@@@@@@@@@@@@@@@@@@@@@@@@@@@@@@@.....     ",
"          .....@@@@@@@@@@@@@@@@@@@@@@@@@@@@@@@@@@@@@@@@@@@@@.....     ",
"          .....@@@@@@@@@@.....@@@@@@@@@@.....@@@@@..........          ",
"          .....@@@@@@@@@@.....@@@@@@@@@@.....@@@@@..........          ",
"          .....@@@@@@@@@@.....@@@@@@@@@@.....@@@@@..........          ",
"          .....@@@@@@@@@@.....@@@@@@@@@@.....@@@@@..........          ",
"          .....@@@@@@@@@@.....@@@@@@@@@@.....@@@@@..........          ",
"          .....@@@@@@@@@@.....@@@@@@@@@@.....@@@@@..........          ",
"     .....+++++.....+++++.........................@@@@@.....          ",
"     .....+++++.....+++++.........................@@@@@.....          ",
"     .....+++++.....+++++.........................@@@@@.....          ",
"     .....+++++.....+++++.........................@@@@@.....          ",
"     .....+++++.....+++++.........................@@@@@.....          ",
"     .....+++++.....+++++.........................@@@@@.....          ",
"     .....+++++.....+++++.........................@@@@@.....          ",
"     ..........     ..........                    ..........          ",
"     ..........     ..........                    ..........          ",
"     ..........     ..........                    ..........          ",
"     ..........     ..........                    ..........          ",
"     ..........     ..........                    ..........          ",
"     ..........     ..........                    ..........          "};
