/* XPM */
static char * C:\Users\chtzm\AppData\Local\Packages\CanonicalGroupLimited_Ubuntu20_04onWindows_79rhkp1fndgsc\LocalState\rootfs\home\mchatzip\projects\so_long\u_xpm[] = {
"70 70 9 1",
" 	c #C28569",
".	c #8B9BB5",
"+	c #8B9BB4",
"@	c #BF4830",
"#	c #BE4A2F",
"$	c #733D3B",
"%	c #5B6986",
"&	c #5A6988",
"*	c #733E39",
"               ...                                   ++               ",
"               ...                                   ++               ",
"@@@@@##@@@@@@  ...$$@@##@@@@@@@@@@@@@@@@@@@@@@@@@@   ++$$@@@@@@@@@@@@@",
"@@@@@##@@@@@@  ...$$@@##@@@@@@@@@@@@@@@@@@@@@@@@@@   ++$$@@@@@@@@@@@@@",
"@@@@@@@@@@@@@  ...$$@@@@@@@@@@@@@@@@@@@@@@@@@@@@@@   ++$$@@@@@@@@@@@@@",
"@@@@@@@@@@@@@  ...$$@@@@@@@@@@@@@@@@@@@@@@@@@@@@@@   ++$$@@@@@@@@@@@@@",
"@@@@@@@@@@@@@  ...$$@@@@@@@@@@@@@@@@@@@@@@@@@@@@@@   ++$$@@@@@@@@@@@@@",
"@@@@@@@@@@@@@  ...$$@@@@@@@@@@@@@@@@@@@@@@@@@@@@@@   ++$$@@@@@@@@@@@@@",
"@@@@@@@@@@@@@  ...$$@@@@@@@@@@@@@@@@@@@@@@@@@@@@@@   ++$$@@@@@@@@@@@@@",
"@@@@@@@@@@@@@  ...$$@@@@@@@@@@@@@@@@@@@@@@@@@@@@@@   ++$$@@@@@@@@@@@@@",
"@@@@@@@@@@@@@  ...$$@@@@@@@@@@@@@@@@@@@@@@@@@@@@@@   ++$$@@@@@@@@@@@@@",
"@@@@@@@@@@@@@  ...$$@@@@@@@@@@@@@@@@@@@@@@@@@@@@@@   ..$$@@@@@@@@@@@@@",
"@@@@@@@@@@@@@  ...$$@@@@@@@@@@@@@@@@@@@@@@@@@@@@@@   ..$$@@@@@@@@@@@@@",
"$$$$$$$$$$$$$  ...$$$$$$$$$$$$$$$$$$$$$$$$$$$$$$$$   ..$$$$$$$$$$$$$$$",
"$$$$$$$$$$$$$  ...$$$$$$$$$$$$$$$$$$$$$$$$$$$$$$$$   ..$$$$$$$$$$$$$$$",
"$$$$$$$$$$$$$  ...$$$$$$$$$$$$$$$$$$$$$$$$$$$$$$$$   ..$$$$$$$$$$$$$$$",
"%%%%%%%%%%%%%%%...%%%%%%%%%%%%%%%%%%%%%%%%%%%%%%%%%%%..%%%%%%&&&&&%%%%",
"%%%%%%%%%%%%%%%...%%%%%%%%%%%%%%%%%%%%%%%%%%%%%%%%%%%..%%%%%%&&&&&%%%%",
"                          ...                                ...      ",
"                          ...                                ...      ",
"@@@@@@@@@@@@@@@@@@@@@@@@  ...$$@@@@@@@@@@@@@@@@@@@@@@@@@@@@  ...$$##@@",
"@@@@@@@@@@@@@@@@@@@@@@@@  ...$$@@@@@@@@@@@@@@@@@@@@@@@@@@@@  ...$$##@@",
"@@@@@@@@@@@@@@@@@@@@@@@@  ...$$@@@@@@@@@@@@@@@@@@@@@@@@@@@@  ...$$@@@@",
"@@@@@@@@@@@@@@@@@@@@@@@@  ...$$@@@@@@@@@@@@@@@@@@@@@@@@@@@@  ...$$@@@@",
"@@@@@@@@@@@@@@@@@@@@@@@@  ...$$@@@@@@@@@@@@@@@@@@@@@@@@@@@@  ...$$@@@@",
"@@@@@@@@@@@@@@@@@@@@@@@@  ...$$@@@@@@@@@@@@@@@@@@@@@@@@@@@@  ...$$@@@@",
"@@@@@@@@@@@@@@@@@@@@@@@@  ...$$@@@@@@@@@@@@@@@@@@@@@@@@@@@@  ...$$@@@@",
"@@@@@@@@@@@@@@@@@@@@@@@@  ...$$@@@@@@@@@@@@@@@@@@@@@@@@@@@@  ...$$@@@@",
"@@@@@@@@@@@@@@@@@@@@@@@@  ...$$@@@@@@@@@@@@@@@@@@@@@@@@@@@@  ...$$@@@@",
"@@@@@@@@@@@@@@@@@@@@@@@@  ...$$@@@@@@@@@@@@@@@@@@@@@@@@@@@@  ...$$@@@@",
"@@@@@@@@@@@@@@@@@@@@@@@@  ...$$@@@@@@@@@@@@@@@@@@@@@@@@@@@@  ...$$@@@@",
"$$$$$$$$$$$$$$$$$$$$$$$$  ...$$$$$$$$$$$$$$$$$$$$$$$$$$$$$$  ...$$$$$$",
"$$$$$$$$$$$$$$$$$$$$$$$$  ...$$$$$$$$$$$$$$$$$$$$$$$$$$$$$$  ...$$$$$$",
"$$$$$$$$$$$$$$$$$$$$$$$$  ...$$$$$$$$$$$$$$$$$$$$$$$$$$$$$$  ...$$$$$$",
"%%%%%%%%%%%%%%%%%%%%%%%%%%...%%%%%%%%%%%%%%%%%%%%%%%%%%%%%%%%...%%%%%%",
"%%%%%%%%%%%%%%%%%%%%%%%%%%...%%%%%%%%%%%%%%%%%%%%%%%%%%%%%%%%...%%%%%%",
"     ..                                 ..                            ",
"     ..                                 ..                            ",
"@@   ..$$@@@@@@@@@@@@@@@@@@@@@@@@@@@@   ..$$@@@@@@@@@@@@@@@@@@@@@@@@@@",
"@@   ..$$@@@@@@@@@@@@@@@@@@@@@@@@@@@@   ..$$@@@@@@@@@@@@@@@@@@@@@@@@@@",
"@@   ..$$@@@@@@@@@@@@@@@@@@@@@@@@@@@@   ..$$@@@@@@@@@@@@@@@@@@@@@@@@@@",
"@@   ..$$@@@@@@@@@@@@@@@@@@@@@@@@@@@@   ..$$@@@@@@@@@@@@@@@@@@@@@@@@@@",
"@@   ..$$@@@@@@@@@@@@@@@@@@@@@@@@@@@@   ..$$@@@@@@@@@@@@@@@@@@@@@@@@@@",
"@@   ..$$@@@@@@@@@@@@@@@@@@@@@@@@@@@@   ..$$@@@@@@@@@@@@@@@@@@@@@@@@@@",
"@@   ..$$@@@@@@@@@@@@@@@@@@@@@@@@@@@@   ..$$@@@@@@@@@@@@@@@@@@@@@@@@@@",
"@@   ..$$@@@@@@@@@@@@@@@@@@@@@@@@@@@@   ..$$@@@@@@@@@@@@@@@@@@@@@@@@@@",
"@@   ..$$@@@@@@@@@@@@@@@@@@@@@@@@@@@@   ..$$@@@@@@@@@@@@@@@@@@@@@@@@@@",
"@@   ..$$@@@@@@@@@@@@@@@@@@@@@@@@@@@@   ..$$@@@@@@@@@@@@@@@@@@@@@@@@@@",
"@@   ..$$@@@@@@@@@@@@@@@@@@@@@@@@@@@@   ..$$@@@@@@@@@@@@@@@@@@@@@@@@@@",
"@@   ..$$@@@@@@@@@@@@@@@@@@@@@@@@@@@@   ..$$@@@@@@@@@@@@@@@@@@@@@@@@@@",
"$$   ..$$$$$$$$$$$$$$$$$$$$$$$$$$$$$$$$$..$$$$$$$$$$$$$$$$$$$$$$$$$$$$",
"$$   ..$$$$$$$$$$$$$$$$$$$$$$$$$$$$$$$$$..$$$$$$$$$$$$$$$$$$$$$$$$$$$$",
"%%%%%..%%%%%%%%%%%%%%%%%%%%%%%%%%%%%%%%%..%%%%%%%%%%%%%%%%%%%%%%%%%%%%",
"%%%%%..%%%%%%%%%%%%%%%%%%%%%%%%%%%%%%%%%..%%%%%%%%%%%%%%%%%%%%%%%%%%%%",
"                      ..                                 ..           ",
"                      ..                                 ..           ",
"@@@@@@@@@@@@@@@@@@@@  ..$$@@@@@@@@@@@@@@@@@@@@@@@@@@@@@  ..$$@@@@@@@@@",
"@@@@@@@@@@@@@@@@@@@@  ..$$@@@@@@@@@@@@@@@@@@@@@@@@@@@@@  ..$$@@@@@@@@@",
"@@@@@@@@@@@@@@@@@@@@  ..$$@@@@@@@@@@@@@@@@@@@@@@@@@@@@@  ..$$@@@@@@@@@",
"@@@@@@@@@@@@@@@@@@@@  ..$$@@@@@@@@@@@@@@@@@@@@@@@@@@@@@  ..$$@@@@@@@@@",
"@@@@@@@@@@@@@@@@@@@@  ..$$@@@@@@@@@@@@@@@@@@@@@@@@@@@@@  ..$$@@@@@@@@@",
"@@@@@@@@@@@@@@@@@@@@  ++$$@@@@@@@@@@@@@@@@@@@@@@@@@@@@@  ..$$@@@@@@@@@",
"@@@@@@@@@@@@@@@@@@@@  ++$$@@@@@@@@@@@@@@@@@@@@@@@@@@@@@  ..$$@@@@@@@@@",
"@@@@@@@@@@@@@@@@@@@@  ..$$@@@@@@@@@@@@@@@@@@@@@@@@@@@@@  ..$$@@@@@@@@@",
"@@@@@@@@@@@@@@@@@@@@  ..$$@@@@@@@@@@@@@@@@@@@@@@@@@@@@@  ..$$@@@@@@@@@",
"@@@@@@@@@@@@@@@@@@@@  ++$$@@@@@@@@@@@@@@@@@@@@@@@@@@@@@  ..$$@@@@@@@@@",
"@@@@@@@@@@@@@@@@@@@@  ++$$@@@@@@@@@@@@@@@@@@@@@@@@@@@@@  ..$$@@@@@@@@@",
"@@@@@@@@@@@@@@@@@@@@  ++$$@@@@@@@@@@@@@@@@@@@@@@@@@@@@@  ..$$@@@@@@@@@",
"$$$$$$$$$$$$$$$***$$  ++$$$$$$$$$**$$$$$$$$$$$$$$$***$$  ..$$$$$$$$$$$",
"$$$$$$$$$$$$$$$***$$  ++$$$$$$$$$**$$$$$$$$$$$$$$$***$$  ..$$$$$$$$$$$"};
